<?xml version="1.0" encoding="utf-8"?>
<!-- Generator: Adobe Illustrator 19.2.1, SVG Export Plug-In . SVG Version: 6.00 Build 0)  -->
<svg version="1.1" id="Isolation_Mode" xmlns="http://www.w3.org/2000/svg" xmlns:xlink="http://www.w3.org/1999/xlink" x="0px"
	 y="0px" viewBox="0 0 47.4 47.4" style="enable-background:new 0 0 47.4 47.4;" xml:space="preserve">
<style type="text/css">
	.st0{fill:none;stroke:#000000;stroke-miterlimit:10;}
	.st1{fill:#000000;}
</style>
<title>icon-twitter-hover</title>
<circle class="st0" cx="23.7" cy="23.7" r="23.2"/>
<path class="st1" d="M32,18.1c-0.6,0.3-1.3,0.5-2,0.6c0.7-0.5,1.3-1.2,1.5-2c-0.7,0.4-1.4,0.7-2.2,0.9c-0.6-0.7-1.5-1.2-2.5-1.2
	c-2,0.1-3.5,1.7-3.4,3.7c0,0.3,0,0.6,0.1,0.8c-2.8-0.2-5.4-1.6-7.1-3.9C16.1,17.7,16,18.3,16,19c0,1.2,0.6,2.4,1.5,3.1
	c-0.5,0-1.1-0.2-1.6-0.5v0.1c0,1.7,1.1,3.2,2.8,3.6c-0.3,0.1-0.6,0.1-0.9,0.1c-0.2,0-0.4,0-0.6-0.1c0.4,1.5,1.7,2.5,3.2,2.6
	c-1.2,1-2.7,1.6-4.3,1.6c-0.3,0-0.5,0-0.8-0.1c1.5,1.1,3.4,1.7,5.3,1.7c6.3,0,9.8-5.6,9.8-10.5c0-0.2,0-0.3,0-0.5
	C31,19.5,31.6,18.9,32,18.1z"/>
</svg>
