<svg id="Isolation_Mode" data-name="Isolation Mode" xmlns="http://www.w3.org/2000/svg" viewBox="0 0 47.37 47.37"><defs><style>.cls-1{fill:none;stroke:#fff;stroke-miterlimit:10;}.cls-2{fill:#fff;}</style></defs><title>icon-twitter</title><circle class="cls-1" cx="23.69" cy="23.69" r="23.19"/><path class="cls-2" d="M1118,3637.67a6.36,6.36,0,0,1-2,.58,3.67,3.67,0,0,0,1.51-2,6.89,6.89,0,0,1-2.18.9,3.31,3.31,0,0,0-2.5-1.17,3.57,3.57,0,0,0-3.43,3.7,4.05,4.05,0,0,0,.09.84,9.53,9.53,0,0,1-7.07-3.85,3.9,3.9,0,0,0-.46,1.86,3.75,3.75,0,0,0,1.53,3.07,3.24,3.24,0,0,1-1.55-.46v0.05a3.65,3.65,0,0,0,2.75,3.62,3.23,3.23,0,0,1-.91.12,2.72,2.72,0,0,1-.64-0.07,3.46,3.46,0,0,0,3.2,2.57,6.55,6.55,0,0,1-4.26,1.58,6.29,6.29,0,0,1-.82-0.05,9.18,9.18,0,0,0,5.26,1.67c6.31,0,9.76-5.63,9.76-10.51,0-.16,0-0.31,0-0.47A7.48,7.48,0,0,0,1118,3637.67Z" transform="translate(-1085.99 -3619.57)"/></svg>