<?xml version="1.0" encoding="utf-8"?>
<!-- Generator: Adobe Illustrator 19.2.1, SVG Export Plug-In . SVG Version: 6.00 Build 0)  -->
<svg version="1.1" id="Isolation_Mode" xmlns="http://www.w3.org/2000/svg" xmlns:xlink="http://www.w3.org/1999/xlink" x="0px"
	 y="0px" viewBox="0 0 47.4 47.4" style="enable-background:new 0 0 47.4 47.4;" xml:space="preserve">
<style type="text/css">
	.st0{fill:none;stroke:#000000;stroke-miterlimit:10;}
	.st1{fill:#000000;}
</style>
<title>icon-instagram-hover</title>
<circle class="st0" cx="23.7" cy="23.7" r="23.2"/>
<path class="st1" d="M27.9,15.7h-9.6c-1.7,0-3,1.3-3,3v9.6c0,1.7,1.3,3,3,3h9.6c1.7,0,3-1.3,3-3v-9.6C30.9,17,29.6,15.7,27.9,15.7z
	 M28.8,17.5h0.3v2.6h-2.6v-2.6H28.8L28.8,17.5z M20.9,21.9c0.9-1.2,2.6-1.5,3.8-0.6c1.2,0.9,1.5,2.6,0.6,3.8
	c-0.9,1.2-2.6,1.5-3.8,0.6c-0.7-0.5-1.1-1.3-1.1-2.2C20.4,22.9,20.6,22.4,20.9,21.9L20.9,21.9z M29.4,28.3c0,0.8-0.7,1.5-1.5,1.5
	h-9.6c-0.8,0-1.5-0.7-1.5-1.5v-6.4h2.3c-0.9,2.2,0.2,4.7,2.3,5.6c2.2,0.9,4.7-0.2,5.6-2.3c0.4-1,0.4-2.2,0-3.2h2.3V28.3z"/>
</svg>
