<?xml version="1.0" encoding="utf-8"?>
<!-- Generator: Adobe Illustrator 19.2.1, SVG Export Plug-In . SVG Version: 6.00 Build 0)  -->
<svg version="1.1" id="Isolation_Mode" xmlns="http://www.w3.org/2000/svg" xmlns:xlink="http://www.w3.org/1999/xlink" x="0px"
	 y="0px" viewBox="0 0 47.4 47.4" style="enable-background:new 0 0 47.4 47.4;" xml:space="preserve">
<style type="text/css">
	.st0{fill:none;stroke:#000000;stroke-miterlimit:10;}
	.st1{fill:#000000;}
</style>
<title>icon-linkedin-hover</title>
<circle class="st0" cx="23.7" cy="23.7" r="23.2"/>
<path class="st1" d="M19.1,30.9H16V21h3.1V30.9z M17.4,19.7L17.4,19.7c-0.9,0.1-1.8-0.6-1.8-1.6c0,0,0-0.1,0-0.1
	c-0.1-1,0.7-1.9,1.7-2c1-0.1,1.9,0.7,2,1.7c0.1,1-0.7,1.9-1.7,2C17.6,19.7,17.5,19.7,17.4,19.7L17.4,19.7z M31.4,30.9h-3.5v-5.1
	c0-1.3-0.6-2.3-1.8-2.3c-0.8,0-1.4,0.5-1.7,1.2c-0.1,0.3-0.1,0.5-0.1,0.8v5.4h-3.5c0,0,0-9.1,0-9.9h3.5v1.6c0.6-1.1,1.8-1.8,3.1-1.6
	c2.2,0,3.9,1.4,3.9,4.5V30.9L31.4,30.9z"/>
</svg>
