<svg id="Isolation_Mode" data-name="Isolation Mode" xmlns="http://www.w3.org/2000/svg" viewBox="0 0 47.37 47.37"><defs><style>.cls-1{fill:none;stroke:#fff;stroke-miterlimit:10;}.cls-2{fill:#fff;}</style></defs><title>icon-linkedin</title><circle class="cls-1" cx="23.69" cy="23.69" r="23.19"/><path class="cls-2" d="M1221.43,3650.45h-3.09v-9.9h3.09v9.9Zm-1.63-11.14h0a1.72,1.72,0,0,1-1.85-1.72A1.88,1.88,0,1,1,1219.81,3639.31Zm14,11.14h-3.51v-5.12c0-1.34-.55-2.26-1.76-2.26a1.77,1.77,0,0,0-1.67,1.21,2.28,2.28,0,0,0-.08.81v5.36h-3.48s0-9.07,0-9.9h3.48v1.55a3.17,3.17,0,0,1,3.09-1.65c2.2,0,3.93,1.42,3.93,4.49v5.5Z" transform="translate(-1202.36 -3619.57)"/></svg>