<?xml version="1.0" encoding="utf-8"?>
<!-- Generator: Adobe Illustrator 19.2.1, SVG Export Plug-In . SVG Version: 6.00 Build 0)  -->
<svg version="1.1" id="Isolation_Mode" xmlns="http://www.w3.org/2000/svg" xmlns:xlink="http://www.w3.org/1999/xlink" x="0px"
	 y="0px" viewBox="0 0 47.4 47.4" style="enable-background:new 0 0 47.4 47.4;" xml:space="preserve">
<style type="text/css">
	.st0{fill:none;stroke:#000000;stroke-miterlimit:10;}
	.st1{fill:#000000;}
</style>
<title>icon-youtube-hover</title>
<circle class="st0" cx="23.7" cy="23.7" r="23.2"/>
<path class="st1" d="M31,19.8c0-0.1,0-0.1,0-0.2v-0.1c-0.2-0.6-0.8-1-1.4-1h0.1c-4.1-0.6-8.2-0.6-12.3,0h0.1c-0.6,0-1.2,0.4-1.4,1
	v0.1c0,0.1,0,0.1,0,0.2c-0.4,2.4-0.4,4.9,0,7.4c0,0.1,0,0.1,0,0.2v0.1c0.2,0.6,0.8,1,1.4,1h-0.1c4.1,0.6,8.2,0.6,12.3,0h-0.1
	c0.6,0,1.2-0.4,1.4-1v-0.1c0-0.1,0-0.1,0-0.2C31.4,24.8,31.4,22.3,31,19.8z M25.8,23.8l-3.1,2.3c-0.1,0-0.1,0.1-0.2,0.1
	c-0.1,0-0.1,0-0.2,0c-0.1-0.1-0.2-0.2-0.2-0.3v-4.6c0-0.2,0.2-0.4,0.4-0.4c0.1,0,0.2,0,0.2,0.1l3.1,2.3C26,23.4,26,23.6,25.8,23.8
	C25.9,23.8,25.9,23.8,25.8,23.8L25.8,23.8z"/>
</svg>
