<svg id="Isolation_Mode" data-name="Isolation Mode" xmlns="http://www.w3.org/2000/svg" viewBox="0 0 47.37 47.37"><defs><style>.cls-1{fill:none;stroke:#fff;stroke-miterlimit:10;}.cls-2{fill:#fff;}</style></defs><title>icon-youtube</title><circle class="cls-1" cx="23.69" cy="23.69" r="23.19"/><path class="cls-2" d="M1175.2,3637.71a1.36,1.36,0,0,0,0-.17l0-.08a1.49,1.49,0,0,0-1.41-1h0.1a45.78,45.78,0,0,0-12.28,0h0.1a1.49,1.49,0,0,0-1.41,1l0,0.08a1.45,1.45,0,0,0,0,.17,25.47,25.47,0,0,0,0,7.37,1.45,1.45,0,0,0,0,.17l0,0.08a1.49,1.49,0,0,0,1.41,1h-0.1a45.75,45.75,0,0,0,12.28,0h-0.1a1.49,1.49,0,0,0,1.41-1l0-.08a1.35,1.35,0,0,0,0-.17A25.5,25.5,0,0,0,1175.2,3637.71Zm-5.21,4-3.14,2.28a0.38,0.38,0,0,1-.22.07,0.39,0.39,0,0,1-.17,0,0.38,0.38,0,0,1-.21-0.34v-4.56a0.38,0.38,0,0,1,.6-0.31l3.14,2.28A0.38,0.38,0,0,1,1170,3641.73Z" transform="translate(-1144.17 -3617.87)"/></svg>