<svg id="Isolation_Mode" data-name="Isolation Mode" xmlns="http://www.w3.org/2000/svg" viewBox="0 0 47.37 47.37"><defs><style>.cls-1{fill:none;stroke:#fff;stroke-miterlimit:10;}.cls-2{fill:#fff;}</style></defs><title>icon-instagram</title><circle class="cls-1" cx="23.69" cy="23.69" r="23.19"/><path class="cls-2" d="M1055.74,3635.35h-9.57a3,3,0,0,0-3,3v9.57a3,3,0,0,0,3,3h9.57a3,3,0,0,0,3-3v-9.57A3,3,0,0,0,1055.74,3635.35Zm0.87,1.8h0.35v2.65h-2.64v-2.65h2.3Zm-7.88,4.4a2.74,2.74,0,1,1-.52,1.6A2.74,2.74,0,0,1,1048.72,3641.55Zm8.51,6.39a1.5,1.5,0,0,1-1.5,1.5h-9.57a1.5,1.5,0,0,1-1.5-1.5v-6.39H1047a4.27,4.27,0,1,0,7.91,0h2.33v6.39Z" transform="translate(-1027.8 -3619.65)"/></svg>