<svg id="Isolation_Mode" data-name="Isolation Mode" xmlns="http://www.w3.org/2000/svg" viewBox="0 0 135.44 136.96"><defs><style>.cls-1{fill:#fff;}.cls-2{fill:#dac792;}.cls-3{fill:#a7600c;}.cls-4{fill:#fdb913;}.cls-5{fill:#999;}.cls-6{fill:#ec881d;}</style></defs><title>mgh-logo</title><path class="cls-1" d="M77.74,89.74a5.1,5.1,0,0,1-5.1-5.1h0V77.36a5.1,5.1,0,0,1,5.1-5.1H91.3v3.54H77.74a1.56,1.56,0,0,0-1.56,1.56h0v7.29a1.56,1.56,0,0,0,1.56,1.57h10v-3.6H80.19V79.07H91.3V89.74H77.74Z" transform="translate(-12.51 -12.52)"/><path class="cls-1" d="M64.64,89.75v-13a1.24,1.24,0,0,0-1.41-.95H59.4v14H55.89v-14H50.73v14H47.22V72.26H63.66c2.4,0,4.54,1.34,4.54,3.24V89.75H64.64Z" transform="translate(-12.51 -12.52)"/><path class="cls-1" d="M111.23,89.75V82.6H99.65v7.16H96.12V72.26h3.54v6.81h11.58V72.26h3.54V89.75h-3.54Z" transform="translate(-12.51 -12.52)"/><path class="cls-2" d="M12.51,81a68.48,68.48,0,0,0,116.95,48.38,1.1,1.1,0,1,0-1.56-1.56A66.27,66.27,0,1,1,81,14.73a66.6,66.6,0,0,1,64.77,52.2,1.1,1.1,0,1,0,2.16-.46A68.49,68.49,0,0,0,12.51,81Z" transform="translate(-12.51 -12.52)"/><path class="cls-3" d="M18.5,81c0,1.69.07,3.4,0.21,5.09a1.11,1.11,0,1,0,2.21-.18c-0.13-1.63-.2-3.28-0.2-4.91a60.27,60.27,0,1,1,31.72,53.1A1.11,1.11,0,1,0,51.37,136,62.51,62.51,0,1,0,18.5,81Z" transform="translate(-12.51 -12.52)"/><path class="cls-4" d="M24.49,81A56.51,56.51,0,1,0,133,58.94a1.11,1.11,0,0,0-2,.87A54.3,54.3,0,1,1,81,26.71a54.85,54.85,0,0,1,9.51.83,1.11,1.11,0,1,0,.38-2.18A56.55,56.55,0,0,0,24.49,81Z" transform="translate(-12.51 -12.52)"/><path class="cls-5" d="M30.48,81a50.54,50.54,0,0,0,68.75,47.12,1.11,1.11,0,0,0-.8-2.06,48.28,48.28,0,1,1,29.9-35.4,1.11,1.11,0,0,0,2.17.44A50.52,50.52,0,1,0,30.48,81Z" transform="translate(-12.51 -12.52)"/><path class="cls-6" d="M77.63,36.61a1.07,1.07,0,0,0-1,1.14,1.14,1.14,0,0,0,1.18,1.06L81,38.7a42.29,42.29,0,1,1-37.13,22,1.11,1.11,0,0,0-1.94-1.06A44.53,44.53,0,1,0,81,36.49Z" transform="translate(-12.51 -12.52)"/></svg>